<?xml version="1.0" encoding="UTF-8"?>
<svg version="1.1" xmlns="http://www.w3.org/2000/svg" width="225" height="225">
<path d="M0 0 C74.25 0 148.5 0 225 0 C225 74.25 225 148.5 225 225 C150.75 225 76.5 225 0 225 C0 150.75 0 76.5 0 0 Z " fill="#D35777" transform="translate(0,0)"/>
<path d="M0 0 C0.9516655 -0.01283524 1.90333099 -0.02567047 2.88383484 -0.03889465 C3.90677139 -0.04628159 4.92970795 -0.05366852 5.98364258 -0.0612793 C7.04424393 -0.06935104 8.10484528 -0.07742279 9.19758606 -0.08573914 C11.44274265 -0.09956345 13.68792011 -0.11029298 15.93310547 -0.11816406 C18.22092884 -0.12967533 20.50872554 -0.15011342 22.79638672 -0.1796875 C26.10899031 -0.22250949 29.42079601 -0.2385548 32.73364258 -0.2487793 C33.74645798 -0.26628738 34.75927338 -0.28379547 35.80278015 -0.30183411 C44.97002404 -0.27411169 52.18994695 2.70412928 59.39770508 8.3293457 C64.34533134 13.42787996 67.28481364 20.83024116 67.36767578 27.87280273 C67.38692863 29.30041428 67.38692863 29.30041428 67.40657043 30.75686646 C67.41395737 31.78496429 67.4213443 32.81306213 67.42895508 33.87231445 C67.43702682 34.93433075 67.44509857 35.99634705 67.45341492 37.09054565 C67.46725321 39.34167856 67.4779765 41.59283243 67.48583984 43.84399414 C67.50300293 47.26790855 67.54688664 50.69084484 67.59106445 54.11450195 C67.60119609 56.30459904 67.60971072 58.49470432 67.61645508 60.68481445 C67.63396317 61.70076691 67.65147125 62.71671936 67.66950989 63.76345825 C67.64015799 73.50192344 64.59174851 80.36718732 57.98364258 87.4543457 C50.5239105 94.62153927 43.10690956 95.49117995 33.23754883 95.51293945 C31.65444916 95.52292465 31.65444916 95.52292465 30.03936768 95.53311157 C27.81036109 95.54321517 25.58132439 95.5479293 23.35229492 95.54760742 C19.9658743 95.55196949 16.58076946 95.58828435 13.19458008 95.6262207 C11.02140741 95.63209176 8.84822861 95.63605922 6.67504883 95.63793945 C5.67366882 95.65231049 4.67228882 95.66668152 3.64056396 95.68148804 C-4.66342334 95.62831202 -11.18909581 93.56772012 -18.12182617 88.98950195 C-26.01023549 80.73418988 -28.12034346 71.50063093 -28.14526367 60.4074707 C-28.15192047 59.37189529 -28.15857727 58.33631989 -28.16543579 57.2693634 C-28.17553745 55.08323943 -28.18025358 52.89708478 -28.17993164 50.7109375 C-28.184298 47.38595108 -28.22062656 44.06230013 -28.25854492 40.73754883 C-28.26441513 38.60669396 -28.26838316 36.47583283 -28.27026367 34.3449707 C-28.2846347 33.36030319 -28.29900574 32.37563568 -28.31381226 31.36112976 C-28.2516982 21.86271168 -25.17910392 14.90443991 -18.74291992 7.9699707 C-13.10758777 2.74448089 -7.68676096 0.09068241 0 0 Z " fill="#ED536B" transform="translate(92.809326171875,64.822998046875)"/>
<path d="M0 0 C0.9516655 -0.01283524 1.90333099 -0.02567047 2.88383484 -0.03889465 C3.90677139 -0.04628159 4.92970795 -0.05366852 5.98364258 -0.0612793 C7.04424393 -0.06935104 8.10484528 -0.07742279 9.19758606 -0.08573914 C11.44274265 -0.09956345 13.68792011 -0.11029298 15.93310547 -0.11816406 C18.22092884 -0.12967533 20.50872554 -0.15011342 22.79638672 -0.1796875 C26.10899031 -0.22250949 29.42079601 -0.2385548 32.73364258 -0.2487793 C33.74645798 -0.26628738 34.75927338 -0.28379547 35.80278015 -0.30183411 C44.97002404 -0.27411169 52.18994695 2.70412928 59.39770508 8.3293457 C64.34533134 13.42787996 67.28481364 20.83024116 67.36767578 27.87280273 C67.38692863 29.30041428 67.38692863 29.30041428 67.40657043 30.75686646 C67.41395737 31.78496429 67.4213443 32.81306213 67.42895508 33.87231445 C67.43702682 34.93433075 67.44509857 35.99634705 67.45341492 37.09054565 C67.46725321 39.34167856 67.4779765 41.59283243 67.48583984 43.84399414 C67.50300293 47.26790855 67.54688664 50.69084484 67.59106445 54.11450195 C67.60119609 56.30459904 67.60971072 58.49470432 67.61645508 60.68481445 C67.63396317 61.70076691 67.65147125 62.71671936 67.66950989 63.76345825 C67.64015799 73.50192344 64.59174851 80.36718732 57.98364258 87.4543457 C50.5239105 94.62153927 43.10690956 95.49117995 33.23754883 95.51293945 C31.65444916 95.52292465 31.65444916 95.52292465 30.03936768 95.53311157 C27.81036109 95.54321517 25.58132439 95.5479293 23.35229492 95.54760742 C19.9658743 95.55196949 16.58076946 95.58828435 13.19458008 95.6262207 C11.02140741 95.63209176 8.84822861 95.63605922 6.67504883 95.63793945 C5.67366882 95.65231049 4.67228882 95.66668152 3.64056396 95.68148804 C-4.66342334 95.62831202 -11.18909581 93.56772012 -18.12182617 88.98950195 C-26.01023549 80.73418988 -28.12034346 71.50063093 -28.14526367 60.4074707 C-28.15192047 59.37189529 -28.15857727 58.33631989 -28.16543579 57.2693634 C-28.17553745 55.08323943 -28.18025358 52.89708478 -28.17993164 50.7109375 C-28.184298 47.38595108 -28.22062656 44.06230013 -28.25854492 40.73754883 C-28.26441513 38.60669396 -28.26838316 36.47583283 -28.27026367 34.3449707 C-28.2846347 33.36030319 -28.29900574 32.37563568 -28.31381226 31.36112976 C-28.2516982 21.86271168 -25.17910392 14.90443991 -18.74291992 7.9699707 C-13.10758777 2.74448089 -7.68676096 0.09068241 0 0 Z M-16.80932617 16.17700195 C-19.95488801 20.58078852 -20.91414759 24.3626953 -21.00219727 29.7109375 C-21.01826019 30.60254074 -21.03432312 31.49414398 -21.0508728 32.4127655 C-21.09566984 36.48773154 -21.13639508 40.56254013 -21.15942383 44.63769531 C-21.17595716 46.78005862 -21.2032123 48.92236737 -21.24145508 51.06445312 C-21.29652399 54.16866393 -21.31814479 57.27158567 -21.33276367 60.3762207 C-21.35543304 61.32341476 -21.37810242 62.27060883 -21.40145874 63.24650574 C-21.37773228 70.80028156 -19.28838701 76.56144827 -13.9949646 82.06254578 C-7.73059042 87.83011375 -2.09697967 88.49309147 6.17114258 88.51293945 C7.6231884 88.52292465 7.6231884 88.52292465 9.10456848 88.53311157 C11.15123602 88.54322162 13.19793642 88.5479291 15.24462891 88.54760742 C18.35025588 88.5519628 21.45444035 88.58825106 24.55981445 88.6262207 C26.55525234 88.63209303 28.55069693 88.63605964 30.54614258 88.63793945 C31.92167549 88.659496 31.92167549 88.659496 33.32499695 88.68148804 C40.46355312 88.63180094 47.56237615 87.3160997 53.11198425 82.51473999 C59.59536052 75.72541544 60.65302842 67.82636826 60.62426758 58.83325195 C60.62950943 57.8647229 60.63475128 56.89619385 60.64015198 55.89831543 C60.64654343 53.86117507 60.6452727 51.82399766 60.63671875 49.78686523 C60.62819792 46.68576918 60.65702857 43.58651081 60.6887207 40.4855957 C60.69033281 38.497315 60.689755 36.50903107 60.68676758 34.52075195 C60.69800156 33.6028186 60.70923553 32.68488525 60.72080994 31.73913574 C60.63042408 23.31321389 57.90548289 17.49802354 52.04614258 11.5012207 C45.82533564 7.06152901 40.10507145 6.73107463 32.69067383 6.77856445 C31.69616211 6.77569427 30.70165039 6.7728241 29.67700195 6.76986694 C27.58259509 6.76783318 25.48816893 6.77331471 23.39379883 6.78588867 C20.20065559 6.80195174 17.00877802 6.78601613 13.81567383 6.7668457 C11.77400439 6.76882826 9.73233573 6.77267218 7.69067383 6.77856445 C6.74256836 6.77249176 5.79446289 6.76641907 4.81762695 6.76016235 C-4.28259969 6.85601116 -10.42725903 9.62959628 -16.80932617 16.17700195 Z " fill="#FBFAFA" transform="translate(92.809326171875,64.822998046875)"/>
<path d="M0 0 C6.33356518 3.36830512 10.65709292 8.17946933 12.953125 14.99609375 C13.9182514 21.66744193 14.35381512 28.54418691 10.890625 34.55859375 C7.26877167 39.28140817 2.5676827 43.83061861 -3.046875 45.99609375 C-10.53956408 46.81614613 -18.16702768 47.34036119 -24.40234375 42.55859375 C-29.16881968 38.02987553 -33.61008031 33.64677781 -34.41796875 26.89453125 C-34.57338664 18.64824086 -33.54164653 12.96298962 -29.046875 5.99609375 C-28.386875 5.99609375 -27.726875 5.99609375 -27.046875 5.99609375 C-27.046875 5.33609375 -27.046875 4.67609375 -27.046875 3.99609375 C-19.50907531 -2.59948097 -9.33304716 -3.07511938 0 0 Z " fill="#F9F6F7" transform="translate(123.046875,90.00390625)"/>
<path d="M0 0 C5.67458978 1.92721917 9.32050871 5.64101742 12 11 C12.76635019 17.87202545 12.12614152 22.42413308 8 28 C2.83013537 32.67749657 -0.395009 33.35281363 -7.23828125 33.28125 C-12.36455419 32.75919674 -14.98532946 30.12436465 -18.3125 26.4375 C-21.63368155 21.64023776 -21.63446044 16.64846029 -21 11 C-16.31587048 1.63174095 -9.83970178 -0.8187117 0 0 Z " fill="#EC4F6D" transform="translate(117,96)"/>
<path d="M0 0 C6.4044834 -0.10185277 12.80875607 -0.17165458 19.21386719 -0.21972656 C21.39037888 -0.23977764 23.56683714 -0.26702571 25.74316406 -0.30175781 C28.88099393 -0.35056212 32.01810835 -0.37303438 35.15625 -0.390625 C36.12115356 -0.41127014 37.08605713 -0.43191528 38.0802002 -0.45318604 C45.38616988 -0.45558437 50.69934615 1.10761518 56.2421875 5.96484375 C56.78101563 6.61582031 57.31984375 7.26679687 57.875 7.9375 C58.70644531 8.91009766 58.70644531 8.91009766 59.5546875 9.90234375 C63.43732288 15.53741186 63.26662957 20.70980635 63.1953125 27.33203125 C63.1924826 28.32377853 63.18965271 29.31552582 63.18673706 30.33732605 C63.17556804 33.49584159 63.15046927 36.65407057 63.125 39.8125 C63.11496597 41.95767819 63.10584086 44.10286083 63.09765625 46.24804688 C63.07563945 51.49879521 63.04219443 56.74937713 63 62 C62.67 62 62.34 62 62 62 C61.67 49.46 61.34 36.92 61 24 C56.71 24 52.42 24 48 24 C45.87620311 28.41196476 45.87620311 28.41196476 46 31 C45.34 31 44.68 31 44 31 C43.319375 29.453125 43.319375 29.453125 42.625 27.875 C40.14458341 23.41206065 36.46029854 21.58960833 32.046875 19.26171875 C31.37140625 18.84535156 30.6959375 18.42898437 30 18 C30 17.34 30 16.68 30 16 C32.64 16 35.28 16 38 16 C38 11.38 38 6.76 38 2 C35.64488281 2.01740234 35.64488281 2.01740234 33.2421875 2.03515625 C22.11179906 2.0918355 11.08744222 2.09312811 0 1 C0 0.67 0 0.34 0 0 Z " fill="#D64786" transform="translate(90,72)"/>
<path d="M0 0 C0.99 0.66 1.98 1.32 3 2 C3.99 2 4.98 2 6 2 C8.68056948 4.28636808 9.87410807 5.6223242 11 9 C11.08650584 10.48844716 11.11770173 11.98048257 11.11352539 13.47143555 C11.11344986 14.37214279 11.11337433 15.27285004 11.11329651 16.20085144 C11.10813522 17.16968765 11.10297394 18.13852386 11.09765625 19.13671875 C11.0962413 20.13129593 11.09482635 21.12587311 11.09336853 22.15058899 C11.08776761 25.32958982 11.07521496 28.50852043 11.0625 31.6875 C11.05748512 33.84179586 11.05292219 35.99609282 11.04882812 38.15039062 C11.03779788 43.43361774 11.02105886 48.71680385 11 54 C10.67 54 10.34 54 10 54 C9.67 41.46 9.34 28.92 9 16 C6.36 16 3.72 16 1 16 C-0.6875 14.625 -0.6875 14.625 -2 13 C-2.845625 12.67 -3.69125 12.34 -4.5625 12 C-7 11 -7 11 -9 8 C-9.35384949 5.16920408 -9.3920891 3.63169911 -7.875 1.1875 C-5.15523346 -0.53501881 -3.15413751 -0.32855599 0 0 Z " fill="#D9528A" transform="translate(142,80)"/>
<path d="M0 0 C0.33 0 0.66 0 1 0 C1.97299156 4.85729645 2.12038805 9.4500625 2.0625 14.375 C2.05798828 15.11105469 2.05347656 15.84710938 2.04882812 16.60546875 C2.03715142 18.40368158 2.01922011 20.20185197 2 22 C3.98 22.33 5.96 22.66 8 23 C7.65066406 23.49628906 7.30132812 23.99257812 6.94140625 24.50390625 C3.85889249 29.10584605 2.34610059 32.46239061 2 38 C3.98 38 5.96 38 8 38 C8 42.95 8 47.9 8 53 C10.92824652 53.97608217 12.95613276 54.08226668 16 54 C16 56.64 16 59.28 16 62 C9.73147731 60.77687362 6.56226384 57.00269498 3 52 C-0.52924799 46.47799551 -0.39352001 41.68462449 -0.29296875 35.3515625 C-0.28872391 34.33903412 -0.28447906 33.32650574 -0.28010559 32.28329468 C-0.26337302 29.06358752 -0.22573026 25.84451656 -0.1875 22.625 C-0.17244618 20.43620698 -0.158759 18.24740411 -0.14648438 16.05859375 C-0.11348732 10.70551374 -0.06334196 5.35280234 0 0 Z " fill="#F56E4F" transform="translate(72,90)"/>
<path d="M0 0 C0.66 0.66 1.32 1.32 2 2 C2.99 2 3.98 2 5 2 C4.67 3.65 4.34 5.3 4 7 C4.66 7.33 5.32 7.66 6 8 C2.34238728 15.63327873 -3.40401148 21.84175003 -11.375 25.0625 C-15 26 -15 26 -18 25 C-17.34 25 -16.68 25 -16 25 C-16 23.35 -16 21.7 -16 20 C-16.66 20 -17.32 20 -18 20 C-18 19.34 -18 18.68 -18 18 C-17.33613281 17.78085938 -16.67226562 17.56171875 -15.98828125 17.3359375 C-9.93518311 15.16212415 -6.47185408 13.47080036 -3 8 C-1.82624306 5.35666121 -0.90286531 2.75611515 0 0 Z " fill="#F9F5F8" transform="translate(152,134)"/>
<path d="M0 0 C7.0152999 2.63073746 13.54261106 6.13092253 17.5625 12.6875 C19 16 19 16 18 19 C17.01 19 16.02 19 15 19 C14.67 17.68 14.34 16.36 14 15 C12.02 15.99 12.02 15.99 10 17 C9.64808594 16.52949219 9.29617187 16.05898437 8.93359375 15.57421875 C5.32937649 11.0289526 2.4946803 8.8681913 -3 7 C-1.04783565 5.04783565 0.53199953 4.15173355 3 3 C2.01 3 1.02 3 0 3 C0 2.01 0 1.02 0 0 Z " fill="#F8F1F7" transform="translate(139,66)"/>
<path d="M0 0 C0.33 0 0.66 0 1 0 C1.09796875 0.7734375 1.1959375 1.546875 1.296875 2.34375 C2.63733885 11.68077405 4.57747272 18.75832933 12 25 C15.85116223 27.644311 19.80192426 29.95238622 24 32 C21.70839681 32.02692484 19.41670454 32.04636124 17.125 32.0625 C15.84882812 32.07410156 14.57265625 32.08570313 13.2578125 32.09765625 C10 32 10 32 8 31 C8 28.69 8 26.38 8 24 C5.36 24 2.72 24 0 24 C0 16.08 0 8.16 0 0 Z " fill="#F67B48" transform="translate(64,128)"/>
<path d="M0 0 C0.33 0.99 0.66 1.98 1 3 C1.99 2.67 2.98 2.34 4 2 C4.53625 2.804375 5.0725 3.60875 5.625 4.4375 C8.43105369 7.46508424 9.96825194 7.72510809 14 8 C14 9.32 14 10.64 14 12 C12.35 12.33 10.7 12.66 9 13 C8.67 14.98 8.34 16.96 8 19 C7.34 19 6.68 19 6 19 C5.54625 17.96875 5.0925 16.9375 4.625 15.875 C2.14458341 11.41206065 -1.53970146 9.58960833 -5.953125 7.26171875 C-6.62859375 6.84535156 -7.3040625 6.42898437 -8 6 C-8 5.34 -8 4.68 -8 4 C-5.36 4 -2.72 4 0 4 C0 2.68 0 1.36 0 0 Z " fill="#E5447E" transform="translate(128,84)"/>
<path d="M0 0 C1.875 1.125 1.875 1.125 3 3 C3.39365568 6.14924548 3.52854531 8.11909116 1.875 10.875 C-0.91106042 12.54663625 -2.81988862 12.46376624 -6 12 C-8.35210784 9.88310295 -8.91810953 8.55958485 -9.375 5.4375 C-9 3 -9 3 -7.875 1.1875 C-5.12844028 -0.55198782 -3.18153026 -0.39769128 0 0 Z " fill="#FAF7FA" transform="translate(142,80)"/>
<path d="M0 0 C2 2 2 2 2 4 C2.31478446 5.33783393 2.64587656 6.67203709 3 8 C4.98 8 6.96 8 9 8 C10.08654837 12.07455639 10 15.78307636 10 20 C9.34 20 8.68 20 8 20 C4 13.25 4 13.25 4 11 C3.484375 10.773125 2.96875 10.54625 2.4375 10.3125 C0.30709827 9.16536061 -1.44920967 7.94754528 -3.375 6.5 C-6.43480232 4.25966958 -9.30992509 2.9900201 -13 2 C-13 1.67 -13 1.34 -13 1 C-8.57117061 -0.10720735 -4.53942698 -0.22325051 0 0 Z " fill="#C2408E" transform="translate(150,64)"/>
<path d="M0 0 C0.33 0 0.66 0 1 0 C1.97299156 4.85729645 2.12038805 9.4500625 2.0625 14.375 C2.05798828 15.11105469 2.05347656 15.84710938 2.04882812 16.60546875 C2.03715142 18.40368158 2.01922011 20.20185197 2 22 C3.98 22.33 5.96 22.66 8 23 C7.65066406 23.49628906 7.30132812 23.99257812 6.94140625 24.50390625 C3.88587559 29.06556251 2.3987449 32.41757144 2 38 C1.81988396 39.48008395 1.63234409 40.95928281 1.4375 42.4375 C1.2209375 44.2009375 1.2209375 44.2009375 1 46 C0.67 46 0.34 46 0 46 C0 30.82 0 15.64 0 0 Z " fill="#EF6E66" transform="translate(72,90)"/>
<path d="M0 0 C21.78 0 43.56 0 66 0 C66 0.33 66 0.66 66 1 C65.36630493 1.00586624 64.73260986 1.01173248 64.07971191 1.01777649 C57.46040486 1.08190816 50.84157512 1.16637858 44.22265625 1.26245117 C41.75527251 1.29562363 39.28781429 1.32367926 36.8203125 1.34643555 C33.26530334 1.38012213 29.71097202 1.43244702 26.15625 1.48828125 C24.51203064 1.49786613 24.51203064 1.49786613 22.83459473 1.50764465 C13.23296503 1.58224437 13.23296503 1.58224437 5 6 C3.00041636 6.04080783 0.99954746 6.04254356 -1 6 C-1.33 5.34 -1.66 4.68 -2 4 C-1.34 2.68 -0.68 1.36 0 0 Z " fill="#DD3D78" transform="translate(74,64)"/>
<path d="M0 0 C1.20366211 0.00966797 1.20366211 0.00966797 2.43164062 0.01953125 C3.26501953 0.03628906 4.09839844 0.05304688 4.95703125 0.0703125 C6.22450195 0.08384766 6.22450195 0.08384766 7.51757812 0.09765625 C9.60168368 0.12120547 11.68564342 0.15707603 13.76953125 0.1953125 C13.76953125 0.5253125 13.76953125 0.8553125 13.76953125 1.1953125 C11.12953125 1.1953125 8.48953125 1.1953125 5.76953125 1.1953125 C6.09953125 2.5153125 6.42953125 3.8353125 6.76953125 5.1953125 C0.33939658 6.93486584 -5.57996451 7.44522706 -12.23046875 7.1953125 C-5.15333326 -0.07309693 -5.15333326 -0.07309693 0 0 Z " fill="#E64875" transform="translate(90.23046875,72.8046875)"/>
<path d="M0 0 C3 1 3 1 4 3 C5.64556566 4.03435556 7.3170608 5.02763513 9 6 C11.00580329 7.32458708 13.00715862 8.6559907 15 10 C14.67 10.66 14.34 11.32 14 12 C9.38 12 4.76 12 0 12 C0 8.04 0 4.08 0 0 Z " fill="#F46358" transform="translate(88,124)"/>
<path d="M0 0 C0 3 0 3 -2 5.1875 C-2.66 5.785625 -3.32 6.38375 -4 7 C-1 8.33333333 -1 8.33333333 2 7 C2 7.66 2 8.32 2 9 C-2.64203897 11.53309233 -6.65155992 13.46515599 -12 14 C-11.34 13.67 -10.68 13.34 -10 13 C-10 11.35 -10 9.7 -10 8 C-10.66 8 -11.32 8 -12 8 C-12 7.34 -12 6.68 -12 6 C-11.30132812 5.73445312 -10.60265625 5.46890625 -9.8828125 5.1953125 C-8.97273437 4.84210938 -8.06265625 4.48890625 -7.125 4.125 C-6.22007812 3.77695313 -5.31515625 3.42890625 -4.3828125 3.0703125 C-1.87782993 2.11469105 -1.87782993 2.11469105 0 0 Z " fill="#F8EFF2" transform="translate(146,146)"/>
<path d="M0 0 C0.99 0 1.98 0 3 0 C3 0.99 3 1.98 3 3 C4.32 3 5.64 3 7 3 C7 5.64 7 8.28 7 11 C8.98 11 10.96 11 13 11 C13 11.33 13 11.66 13 12 C8.83861737 12.08159574 5.0527516 11.98248524 1 11 C-0.28317892 7.15046324 -0.06643637 4.05261865 0 0 Z " fill="#F05664" transform="translate(96,109)"/>
<path d="M0 0 C4.54805635 -0.17835515 7.8794254 0.00214565 12 2 C12 3.65 12 5.3 12 7 C10.88625 6.814375 9.7725 6.62875 8.625 6.4375 C5.17431139 5.68319343 5.17431139 5.68319343 3 7 C2.34 6.67 1.68 6.34 1 6 C0.375 2.9375 0.375 2.9375 0 0 Z " fill="#EE5B5F" transform="translate(108,137)"/>
<path d="M0 0 C0.99 0.495 0.99 0.495 2 1 C2.625 3.0625 2.625 3.0625 3 5 C3.99 4.67 4.98 4.34 6 4 C6.93423645 7.01031744 7.04449911 7.86650268 6 11 C5.65179959 12.66362417 5.31595508 14.32995171 5 16 C4.01 16 3.02 16 2 16 C1.66104344 14.27192682 1.32908475 12.54248026 1 10.8125 C0.814375 9.84957031 0.62875 8.88664062 0.4375 7.89453125 C0.03122388 5.2065794 -0.07933572 2.71228981 0 0 Z " fill="#E44377" transform="translate(136,104)"/>
<path d="M0 0 C1.65 0 3.3 0 5 0 C5.75 1.625 5.75 1.625 6 4 C4.0625 7.25 4.0625 7.25 2 10 C0.35 9.67 -1.3 9.34 -3 9 C-2.34 8.67 -1.68 8.34 -1 8 C-0.53476937 6.10466658 -0.53476937 6.10466658 -0.375 3.9375 C-0.25125 2.638125 -0.1275 1.33875 0 0 Z " fill="#E94972" transform="translate(145,136)"/>
<path d="M0 0 C1.32 0 2.64 0 4 0 C4 0.66 4 1.32 4 2 C5.98 2 7.96 2 10 2 C10.33 2.66 10.66 3.32 11 4 C11.66 4.33 12.32 4.66 13 5 C12.01 6.485 12.01 6.485 11 8 C11.66 8.33 12.32 8.66 13 9 C7.72785482 8.74282219 5.12870062 6.82766483 1.3203125 3.47265625 C0 2 0 2 0 0 Z " fill="#EC616B" transform="translate(98,120)"/>
<path d="M0 0 C2.6245228 0.99550865 3.95028727 1.93963454 5.75 4.125 C7.42728337 7.98275174 7.2127899 10.81513202 7 15 C6.67 14.01 6.34 13.02 6 12 C4.35 12 2.7 12 1 12 C1.020625 10.7625 1.04125 9.525 1.0625 8.25 C1.06766681 5.3359175 0.93015558 2.79046673 0 0 Z " fill="#E34F7A" transform="translate(122,100)"/>
<path d="M0 0 C0.33 0 0.66 0 1 0 C2.15890535 7.47005253 2.04702594 13.02799149 -1 20 C-1.99 20 -2.98 20 -4 20 C-4 20.99 -4 21.98 -4 23 C-4.66 22.67 -5.32 22.34 -6 22 C-6 18.59235487 -5.52080889 18.11847534 -3.5625 15.5 C-0.31797252 10.58738212 -0.11662609 5.76769018 0 0 Z " fill="#E85D81" transform="translate(136,109)"/>
<path d="M0 0 C2.31 0 4.62 0 7 0 C6.75 3.375 6.75 3.375 6 7 C3.9375 8.4375 3.9375 8.4375 2 9 C0.50178941 5.62902617 0 3.79557881 0 0 Z " fill="#EA4D6E" transform="translate(64,72)"/>
<path d="M0 0 C1.11375 0.3403125 1.11375 0.3403125 2.25 0.6875 C1.92 1.6775 1.59 2.6675 1.25 3.6875 C2.9 3.6875 4.55 3.6875 6.25 3.6875 C5.92 4.6775 5.59 5.6675 5.25 6.6875 C-3.32142857 5.97321429 -3.32142857 5.97321429 -6.75 2.6875 C-4.29511132 0.41445492 -3.41240272 -0.38777304 0 0 Z " fill="#FAF1EC" transform="translate(86.75,153.3125)"/>
<path d="M0 0 C0.66 0 1.32 0 2 0 C2.33 3.3 2.66 6.6 3 10 C1.02 10 -0.96 10 -3 10 C-4 7 -4 7 -3.22265625 5.17578125 C-2.1484375 3.45052083 -1.07421875 1.72526042 0 0 Z " fill="#E94A7A" transform="translate(157,142)"/>
<path d="M0 0 C2.64 0 5.28 0 8 0 C8.33 0.66 8.66 1.32 9 2 C11.01669827 3.13350534 11.01669827 3.13350534 13 4 C6.25 6.125 6.25 6.125 4 5 C4 4.34 4 3.68 4 3 C2.68 2.67 1.36 2.34 0 2 C0 1.34 0 0.68 0 0 Z " fill="#DC4689" transform="translate(128,76)"/>
<path d="M0 0 C4.455 2.97 4.455 2.97 9 6 C8.67 6.66 8.34 7.32 8 8 C5.69 8 3.38 8 1 8 C0.67 5.36 0.34 2.72 0 0 Z " fill="#F16D69" transform="translate(94,128)"/>
<path d="M0 0 C2 2 2 2 2.1953125 3.9453125 C2.13020833 5.96354167 2.06510417 7.98177083 2 10 C1.34 10 0.68 10 0 10 C0 9.01 0 8.02 0 7 C-0.99 7 -1.98 7 -3 7 C-1.125 1.125 -1.125 1.125 0 0 Z " fill="#E85E73" transform="translate(99,102)"/>
<path d="M0 0 C0.33 0 0.66 0 1 0 C1 3.63 1 7.26 1 11 C-0.32 11 -1.64 11 -3 11 C-3.66 10.34 -4.32 9.68 -5 9 C-4.34 9 -3.68 9 -3 9 C-2.01 6.03 -1.02 3.06 0 0 Z " fill="#D84E88" transform="translate(145,84)"/>
<path d="M0 0 C2.31 0 4.62 0 7 0 C7 1.32 7 2.64 7 4 C6.21625 4.103125 5.4325 4.20625 4.625 4.3125 C1.66954819 4.77595022 1.66954819 4.77595022 0 8 C-0.33 6.35 -0.66 4.7 -1 3 C-0.01 2.67 0.98 2.34 2 2 C1.34 1.34 0.68 0.68 0 0 Z " fill="#DA3C77" transform="translate(135,92)"/>
<path d="M0 0 C1.1875 2.5625 1.1875 2.5625 2 5 C-3.75 3.375 -3.75 3.375 -6 0 C-3 -1 -3 -1 0 0 Z " fill="#F47C5E" transform="translate(86,147)"/>
<path d="M0 0 C2.32472205 2.85306797 3.7508258 5.54074837 5 9 C3.68 9.33 2.36 9.66 1 10 C-0.17844001 6.46467997 0 3.73899692 0 0 Z " fill="#F18657" transform="translate(67,142)"/>
<path d="M0 0 C-0.33 1.98 -0.66 3.96 -1 6 C-2.65 6 -4.3 6 -6 6 C-6 4.68 -6 3.36 -6 2 C-2.25 0 -2.25 0 0 0 Z " fill="#EF4C71" transform="translate(152,154)"/>
<path d="M0 0 C1.32 0.33 2.64 0.66 4 1 C0.535 3.97 0.535 3.97 -3 7 C-2.25 2.25 -2.25 2.25 0 0 Z " fill="#E75A81" transform="translate(73,70)"/>
<path d="M0 0 C0 0.66 0 1.32 0 2 C-3.41831915 4.5393228 -5.75776898 5.3636198 -10 5 C-7.31217681 1.88778367 -4.19734673 0 0 0 Z " fill="#F3F3F4" transform="translate(148,153)"/>
<path d="M0 0 C2.3125 0.8125 2.3125 0.8125 4 2 C3.38125 2.28875 2.7625 2.5775 2.125 2.875 C-0.13325765 3.93720042 -0.13325765 3.93720042 -2 6 C-2 5.34 -2 4.68 -2 4 C-2.99 3.67 -3.98 3.34 -5 3 C-2.75 1.375 -2.75 1.375 0 0 Z " fill="#F6EAF0" transform="translate(84,66)"/>
<path d="M0 0 C0.99 0.33 1.98 0.66 3 1 C3.73046875 3.06640625 3.73046875 3.06640625 4.1875 5.5625 C4.34605469 6.38878906 4.50460938 7.21507813 4.66796875 8.06640625 C4.77753906 8.70449219 4.88710937 9.34257813 5 10 C2.7158631 7.79721592 1.20511218 5.96642998 0 3 C0 2.01 0 1.02 0 0 Z " fill="#F04778" transform="translate(122,100)"/>
<path d="M0 0 C0.33 1.32 0.66 2.64 1 4 C-1.64 4 -4.28 4 -7 4 C-3.17391304 0 -3.17391304 0 0 0 Z " fill="#E85A7D" transform="translate(109,96)"/>
<path d="M0 0 C0.99 0.33 1.98 0.66 3 1 C2.45276317 4.37462715 1.9451 6.08235 0 9 C-0.87890625 2.84765625 -0.87890625 2.84765625 -1 1 C-0.67 0.67 -0.34 0.34 0 0 Z " fill="#D8337F" transform="translate(146,81)"/>
<path d="M0 0 C0 3 0 3 -2 5.1875 C-2.66 5.785625 -3.32 6.38375 -4 7 C-5.32 6.34 -6.64 5.68 -8 5 C-4.04 2.525 -4.04 2.525 0 0 Z " fill="#F8DEE2" transform="translate(146,146)"/>
<path d="M0 0 C3.63 0 7.26 0 11 0 C10.67 0.99 10.34 1.98 10 3 C6.7 2.34 3.4 1.68 0 1 C0 0.67 0 0.34 0 0 Z " fill="#EF787D" transform="translate(109,136)"/>
<path d="M0 0 C1.5 1.375 1.5 1.375 3 3 C3 3.66 3 4.32 3 5 C1.68 5.33 0.36 5.66 -1 6 C-1.33 5.34 -1.66 4.68 -2 4 C-1.0625 1.875 -1.0625 1.875 0 0 Z " fill="#CF4C8B" transform="translate(149,83)"/>
</svg>
